# xmcd
#
# Track frame offsets:
#	150
#	13522
#	28910
#	44225
#	63795
#	82537
#	103575
#	129820
#	141550
#	159285
#	170787
#	190430
#	206167
#	223500
#	240655
#	254927
#
# Disc length: 3677 seconds
#
# Revision: 3
# Processed by: cddbd v1.5.2PL0 Copyright (c) Steve Scherf et al.
# Submitted via: EasyCDDAExtractor 15.3.0.1
#
DISCID=ea0e5b10
DTITLE=พงษ์เทพ กระโดนชำนาญ - ที่สุด น้าหมู
DYEAR=1900
DGENRE=Grunge
TTITLE0=คิดถึงบ้าน
TTITLE1=คนกับหมา
TTITLE2=ฝนจางนางหาย
TTITLE3=ตังเก
TTITLE4=คนจนรุ่นใหม่
TTITLE5=ต้นขับขี่
TTITLE6=โคราชา
TTITLE7=มือเรียวเกี่ยวรวง
TTITLE8=วันเวลา
TTITLE9=หยุดพักสายตา
TTITLE10=ตายหยังเขียด
TTITLE11=จันทราคาลิปโซ่
TTITLE12=ลมรำเพย
TTITLE13=ด.ญ.ปรางค์
TTITLE14=ยิ้มเหงาเหงา
TTITLE15=ตรงเส้นขอบฟ้า
EXTD=
EXTT0=
EXTT1=
EXTT2=
EXTT3=
EXTT4=
EXTT5=
EXTT6=
EXTT7=
EXTT8=
EXTT9=
EXTT10=
EXTT11=
EXTT12=
EXTT13=
EXTT14=
EXTT15=
PLAYORDER=
